<svg width="404" height="164" viewBox="0 0 404 164" fill="none" xmlns="http://www.w3.org/2000/svg">
<path fill-rule="evenodd" clip-rule="evenodd" d="M117.152 18.2538C116.68 13.5888 112.52 10.1899 107.86 10.6622C103.2 11.1346 99.8045 15.2991 100.276 19.964C100.642 23.5766 103.219 26.4279 106.528 27.3121C106.544 27.6069 106.557 27.9 106.565 28.1947C107.11 36.7796 102.705 44.5359 96.5844 50.8058C95.7447 43.0306 91.4136 35.6916 84.9461 31.2775C79.0957 27.2847 75.3494 20.4077 75.163 13.3229C75.1552 13.0794 75.151 12.8355 75.151 12.591V10.8002H70.5249V12.591C70.5249 12.8853 70.5298 13.1789 70.5392 13.4721C70.7639 22.0036 75.2744 30.2806 82.3183 35.0883C88.1688 39.081 91.915 45.958 92.1014 53.0429C92.1092 53.2864 92.1134 53.5303 92.1134 53.7748V54.9581C86.6429 60.0541 82.795 66.3815 80.0437 73.1026C77.979 65.4821 73.23 58.5887 66.7082 54.1064C59.218 48.9592 54.4366 40.1232 54.2205 31.0318C54.212 30.744 54.2077 30.4554 54.2077 30.1665V29.758C57.7391 28.7318 60.3209 25.4715 60.3209 21.6056C60.3208 16.9168 56.5237 13.1156 51.8397 13.1156C47.1557 13.1156 43.3586 16.9168 43.3585 21.6056C43.3585 25.5115 45.9941 28.799 49.5816 29.7889V30.1665C49.5816 30.5012 49.5868 30.8355 49.5967 31.1689C49.8475 41.7058 55.387 51.9427 64.0668 57.9082C71.5571 63.0554 76.3385 71.8913 76.5545 80.9828C76.563 81.2706 76.5673 81.5592 76.5673 81.8481V83.9427C75.8373 87.0496 75.3162 90.2152 75.0855 93.4442C71.8448 90.5738 68.1022 88.2495 64.094 86.6057C64.0888 86.5867 64.0853 86.5673 64.0797 86.5484C63.7501 85.4967 63.4181 84.6404 63.0474 83.7294C59.573 75.4217 54.0163 67.6647 45.9118 62.9446C38.3176 58.5882 29.5104 57.6526 21.2233 58.3981C20.8758 58.4307 20.5277 58.4678 20.1798 58.5074C18.9094 55.4224 15.8766 53.2502 12.3363 53.2502C7.6525 53.2504 3.8552 57.0515 3.85509 61.7402C3.85509 66.4289 7.65243 70.2299 12.3363 70.2302C16.5551 70.2302 20.0541 67.1467 20.7076 63.1082C21.0231 63.0723 21.3392 63.0383 21.6548 63.0087C29.2604 62.3119 37.1845 63.2521 43.5987 66.9552C50.3071 70.8343 55.3079 77.5041 58.4747 84.796C55.7894 84.1604 53.0388 83.8289 50.2841 83.8365C50.1172 83.8369 49.9503 83.8388 49.7834 83.8417C45.7791 83.9126 41.7738 84.7047 37.9554 86.3283C36.005 87.0818 34.0545 87.8352 32.1042 88.5887C29.9774 89.4106 27.7738 90.0315 25.5317 90.4391C22.6995 90.9548 19.8056 91.1282 16.9315 90.9592C16.9273 90.9078 16.9247 90.8562 16.9195 90.8047C16.4477 86.1396 12.2876 82.7408 7.62736 83.2131C3.25823 83.656 0.00102662 87.344 2.91673e-07 91.6473C-7.44203e-05 91.9341 0.0142032 92.2235 0.0436713 92.5149C0.0879128 92.9523 0.164594 93.3787 0.271062 93.7917C0.306548 93.9293 0.345007 94.0656 0.387016 94.2002C0.471028 94.4695 0.567965 94.7325 0.676901 94.9886C0.731386 95.1167 0.788899 95.2431 0.849326 95.3678C1.21174 96.1151 1.67934 96.7979 2.23099 97.399C2.41493 97.5995 2.60813 97.791 2.81 97.9726C3.01175 98.1542 3.22212 98.326 3.44022 98.4874C5.07656 99.6989 7.15139 100.328 9.3358 100.106C12.3012 99.8059 14.7529 98.0093 16.0235 95.5411C16.032 95.5417 16.0405 95.5427 16.0491 95.5434C16.5407 95.5797 17.033 95.6071 17.5256 95.6255C18.0181 95.644 18.5109 95.6535 19.0037 95.6542C19.4967 95.6548 19.9897 95.6465 20.4824 95.6293C21.2214 95.6035 21.9596 95.5572 22.6961 95.4914C23.1872 95.4475 23.6775 95.3948 24.1666 95.3331C24.9001 95.2406 25.6311 95.1286 26.3585 94.9962C28.2034 94.6607 30.0248 94.1951 31.806 93.6093C31.8147 95.5145 31.823 97.4197 31.8316 99.3248C31.8707 107.893 31.9101 116.461 31.9491 125.029L31.9355 127.947L34.8773 127.96C42.7568 127.719 49.9602 134.819 49.809 142.781C49.8149 144.067 49.8212 145.354 49.8271 146.64L49.8211 147.933L50.8285 148.781C55.4722 152.619 60.1159 156.457 64.7596 160.295L69.1711 164L69.1907 158.217C69.1309 145.096 69.0712 131.976 69.0115 118.855L69.0228 116.342L66.4891 116.33L65.95 116.333C54.6381 116.297 43.7893 108.539 40.1359 97.739C39.7753 96.7136 39.4765 95.674 39.2361 94.6118C38.9722 93.4427 38.7088 92.2731 38.4448 91.1039C38.8368 90.9525 39.2288 90.8009 39.6209 90.6494C39.7593 90.5904 39.8982 90.5325 40.0373 90.4761C40.5933 90.2502 41.1538 90.0443 41.7178 89.858C41.9999 89.7648 42.2827 89.6761 42.5664 89.5927C42.85 89.5093 43.1344 89.4313 43.4195 89.3575C44.1326 89.1729 44.8501 89.0182 45.5707 88.8925C45.8589 88.8422 46.1475 88.7963 46.4366 88.7553C47.1593 88.6527 47.8843 88.5783 48.6103 88.5322C48.9006 88.5137 49.191 88.5004 49.4815 88.4907C49.7719 88.4811 50.0623 88.4758 50.3526 88.4749C50.6434 88.474 50.934 88.477 51.2246 88.4847C52.2409 88.5117 53.2554 88.5911 54.2642 88.7206C54.5524 88.7576 54.84 88.7991 55.1271 88.8442C55.7014 88.9345 56.2733 89.041 56.8423 89.1631C57.4113 89.2851 57.9773 89.4231 58.5395 89.5761C59.9449 89.9586 61.3269 90.436 62.6731 91.0022C63.7503 91.4552 64.8046 91.9651 65.8303 92.5277C66.5995 92.9497 67.3526 93.4013 68.0868 93.8814C68.5763 94.2014 69.0575 94.5338 69.5295 94.8786C70.4736 95.5682 71.3809 96.3068 72.2461 97.09C72.4625 97.2859 72.6767 97.484 72.8876 97.6855C73.0986 97.8869 73.3065 98.0914 73.5118 98.2982C73.7172 98.5051 73.9199 98.7146 74.1195 98.9269C75.8157 100.731 77.2999 102.726 78.5137 104.879C78.6564 105.132 78.7949 105.388 78.93 105.646C78.9976 105.774 79.0647 105.903 79.1303 106.033C79.3274 106.423 79.5158 106.817 79.695 107.216C80.173 108.279 80.5861 109.375 80.9291 110.5C81.1007 111.062 81.2551 111.631 81.3907 112.208C81.4923 112.639 81.5834 113.075 81.664 113.515C81.7178 113.808 81.7666 114.102 81.8108 114.399C81.855 114.695 81.8946 114.993 81.929 115.292C81.9853 115.684 82.038 116.073 82.0872 116.459C82.1856 117.23 82.2699 117.99 82.3401 118.742C82.7966 123.625 82.6576 128.146 81.9253 133.249L81.7988 134.326L82.5434 135.112C82.6838 135.262 82.8287 135.408 82.9771 135.551C83.7204 136.263 84.5615 136.872 85.4671 137.365C85.8292 137.563 86.2018 137.741 86.5823 137.9C86.9629 138.059 87.3516 138.199 87.7463 138.318C87.9437 138.378 88.1425 138.433 88.3427 138.483C89.3431 138.73 90.3745 138.847 91.4026 138.82C91.5005 138.819 91.5985 138.816 91.6963 138.812C91.8916 138.804 92.0867 138.79 92.2813 138.772C92.3788 138.763 92.4762 138.752 92.5735 138.74C92.8651 138.705 93.1555 138.659 93.4439 138.602C93.54 138.583 93.6359 138.563 93.7315 138.542C94.1139 138.456 94.4922 138.351 94.8647 138.229C95.144 138.136 95.4202 138.034 95.6922 137.922C95.8735 137.847 96.0531 137.767 96.2305 137.684C96.5855 137.516 96.9321 137.331 97.2689 137.13C97.6054 136.928 97.9323 136.711 98.2469 136.478C98.7976 136.069 99.3119 135.612 99.7799 135.112L100.525 134.326L100.398 133.249C100.385 133.157 100.375 133.066 100.362 132.975L100.361 132.973C99.6632 127.982 99.535 123.537 99.9832 118.742C100.053 117.99 100.138 117.23 100.236 116.459C100.285 116.073 100.338 115.684 100.394 115.292C100.429 114.993 100.468 114.695 100.513 114.399C100.557 114.102 100.606 113.808 100.659 113.515C100.74 113.075 100.831 112.639 100.933 112.208C101.068 111.631 101.223 111.062 101.394 110.5C101.737 109.375 102.15 108.279 102.628 107.216C102.808 106.817 102.996 106.423 103.193 106.033C103.259 105.903 103.326 105.774 103.393 105.646C103.529 105.388 103.668 105.132 103.81 104.879C105.024 102.726 106.508 100.731 108.204 98.9269C108.404 98.7146 108.606 98.5051 108.812 98.2982C109.017 98.0914 109.225 97.8869 109.436 97.6855C109.647 97.484 109.861 97.2859 110.077 97.09C110.943 96.3068 111.85 95.5682 112.794 94.8786C113.266 94.5338 113.747 94.2014 114.237 93.8814C114.971 93.4013 115.724 92.9497 116.493 92.5277C117.519 91.9651 118.573 91.4552 119.65 91.0022C120.997 90.436 122.378 89.9586 123.784 89.5761C124.346 89.4231 124.912 89.2851 125.481 89.1631C126.05 89.041 126.622 88.9345 127.196 88.8442C127.484 88.7991 127.772 88.7577 128.06 88.7206C129.068 88.5911 130.083 88.5117 131.099 88.4847C131.389 88.477 131.68 88.474 131.971 88.4749C132.261 88.4758 132.552 88.4811 132.842 88.4907C133.133 88.5004 133.423 88.5137 133.714 88.5322C134.44 88.5784 135.164 88.6527 135.887 88.7553C136.176 88.7963 136.464 88.8422 136.753 88.8925C137.473 89.0182 138.191 89.1729 138.904 89.3575C139.189 89.4313 139.473 89.5093 139.757 89.5927C140.041 89.6761 140.324 89.7648 140.606 89.858C141.17 90.0443 141.73 90.2502 142.286 90.4761C142.425 90.5325 142.564 90.5904 142.702 90.6494C143.095 90.801 143.487 90.9524 143.879 91.1039C143.615 92.2732 143.351 93.4427 143.087 94.6118C142.847 95.674 142.548 96.7136 142.187 97.739C138.476 108.711 127.339 116.543 115.834 116.33L113.301 116.342L113.312 118.855C113.252 131.976 113.192 145.096 113.133 158.217L113.152 164L117.564 160.295C122.207 156.457 126.851 152.619 131.495 148.781L132.502 147.933L132.496 146.64C132.502 145.354 132.508 144.067 132.514 142.781C132.363 134.819 139.567 127.719 147.446 127.96L150.388 127.947L150.374 125.029C150.413 116.461 150.453 107.893 150.492 99.3248C150.5 97.4202 150.509 95.5155 150.518 93.6108C150.822 93.7107 151.127 93.8075 151.433 93.9002C151.595 93.9493 151.757 93.9979 151.919 94.045C152.244 94.1391 152.571 94.2288 152.898 94.3148C154.044 94.6159 155.203 94.8677 156.37 95.0678C156.613 95.1095 156.856 95.1489 157.1 95.1861C157.587 95.2606 158.076 95.3261 158.566 95.3828C158.81 95.4112 159.055 95.4373 159.3 95.4612C159.791 95.509 160.283 95.548 160.775 95.578C162.005 95.6531 163.238 95.6724 164.47 95.6361C164.963 95.6216 165.455 95.5983 165.947 95.566C166.195 95.5496 166.444 95.5304 166.692 95.5095C167.044 96.201 167.484 96.8365 168 97.399C168.184 97.5995 168.377 97.791 168.579 97.9726C168.781 98.1542 168.991 98.326 169.209 98.4874C170.846 99.6989 172.92 100.328 175.105 100.106C178.018 99.8112 180.436 98.0737 181.726 95.673C181.854 95.4331 181.972 95.1867 182.078 94.9344C182.131 94.808 182.18 94.6799 182.227 94.5507C182.321 94.2926 182.402 94.029 182.47 93.7608C182.641 93.09 182.732 92.3901 182.732 91.673C182.732 91.386 182.718 91.0963 182.689 90.8047C182.217 86.1396 178.057 82.7408 173.396 83.2131C169.272 83.6312 166.141 86.942 165.802 90.9321C162.915 91.1348 160.003 90.9921 157.151 90.5024C154.785 90.0969 152.459 89.4545 150.219 88.5887C148.269 87.8352 146.318 87.0818 144.368 86.3283C140.391 84.6371 136.211 83.8479 132.04 83.8365C131.873 83.836 131.706 83.8367 131.539 83.8387C129.162 83.8676 126.79 84.1479 124.463 84.6565C127.65 77.4409 132.527 70.7867 139.134 66.9552C144.638 63.7709 151.295 62.6344 157.86 62.8135C158.011 62.8176 158.162 62.8222 158.313 62.8278C158.846 67.0029 162.406 70.2302 166.722 70.2302C171.406 70.2302 175.203 66.4291 175.203 61.7402C175.203 57.0513 171.406 53.2502 166.722 53.2502C163.291 53.2502 160.339 55.2902 159.003 58.2233C158.665 58.2074 158.327 58.1934 157.988 58.1841C150.814 57.9953 143.328 59.1948 136.82 62.9446C128.412 67.8679 122.908 76.0733 119.442 84.6558C119.217 85.2307 119.01 85.784 118.807 86.3735C114.699 87.9809 110.857 90.3028 107.527 93.1932C108.795 80.0457 114.05 66.4059 123.737 57.6979C132.091 50.6293 139.71 40.0384 138.945 28.0485C138.904 26.5728 138.756 25.094 138.716 23.86L134.091 23.9821C134.147 25.5553 134.285 26.8586 134.321 28.1947C134.969 38.4015 128.622 47.4375 120.71 54.1961C109.242 64.666 103.956 79.5457 102.777 94.4716C102.719 95.685 102.707 96.9114 102.77 98.1588C99.0464 102.86 96.5174 108.481 95.8126 114.656L95.8036 114.725C95.2102 118.599 94.9993 122.898 95.1704 127.075C95.2015 127.834 95.2451 128.589 95.3014 129.337C95.3127 129.487 95.3275 129.637 95.3398 129.786C92.6964 130.29 89.8165 130.231 87.0001 129.585C87.0363 129.129 87.0698 128.67 87.0965 128.209C87.1403 127.455 87.1714 126.695 87.1899 125.932C87.2825 122.12 87.0592 118.247 86.5198 114.725L86.5107 114.656C85.8123 108.537 83.3222 102.962 79.6536 98.2862C79.5784 97.1157 79.5822 95.9077 79.6408 94.6969C79.8573 90.4732 80.6677 86.1828 81.8372 82.0358C84.486 72.8306 88.9683 63.8436 95.9806 57.6979C104.334 50.6293 111.953 40.0384 111.189 28.0485C111.181 27.7783 111.17 27.5079 111.157 27.239C114.974 26.0943 117.568 22.3696 117.152 18.2538ZM144.506 122.28C134.745 123.681 126.631 132.818 126.911 142.781C126.915 143.637 126.919 144.492 126.923 145.347C124.119 147.709 121.315 150.07 118.51 152.431C118.463 142.051 118.415 131.672 118.368 121.292C129.174 120.462 139.247 113.799 144.424 104.356C144.451 110.331 144.479 116.306 144.506 122.28ZM37.8996 104.356C43.0768 113.799 53.1497 120.462 63.9554 121.292C63.9081 131.672 63.8604 142.051 63.8131 152.431C61.0088 150.07 58.2047 147.709 55.4004 145.347C55.4043 144.492 55.4086 143.637 55.4125 142.781C55.6928 132.818 47.5782 123.681 37.8176 122.28C37.8448 116.306 37.8724 110.331 37.8996 104.356ZM174.451 87.8056C174.838 87.8253 175.212 87.9025 175.563 88.0302C175.681 88.0728 175.795 88.1214 175.908 88.1749C176.019 88.2283 176.128 88.2869 176.234 88.3505C176.287 88.3825 176.34 88.4157 176.391 88.45C176.493 88.5187 176.593 88.5921 176.688 88.6701C176.879 88.8262 177.055 89.0007 177.214 89.1909C177.372 89.3814 177.514 89.5875 177.634 89.8075C177.664 89.8624 177.692 89.9183 177.72 89.9748C177.775 90.088 177.824 90.2044 177.868 90.3238C177.978 90.6225 178.053 90.94 178.087 91.2712C178.247 92.8613 177.419 94.3235 176.102 95.0459C175.772 95.2265 175.412 95.3608 175.03 95.4394C174.902 95.4656 174.771 95.4855 174.639 95.4989C174.374 95.5257 174.113 95.5255 173.858 95.4997C173.731 95.4867 173.605 95.4676 173.481 95.4424C171.87 95.1144 170.59 93.7711 170.416 92.0483C170.348 91.3857 170.453 90.7455 170.693 90.1715C170.837 89.8271 171.03 89.5065 171.264 89.2196C171.342 89.1241 171.424 89.0322 171.511 88.9445C171.598 88.8566 171.689 88.7729 171.784 88.6935C171.832 88.6538 171.88 88.6148 171.93 88.5774C172.029 88.5026 172.131 88.4323 172.238 88.3671C172.291 88.3345 172.345 88.3038 172.4 88.2737C172.51 88.2135 172.623 88.1581 172.739 88.1086C172.797 88.0838 172.856 88.0605 172.916 88.0385C173.035 87.9945 173.158 87.9562 173.283 87.9239C173.47 87.8755 173.664 87.8408 173.863 87.8207C174.061 87.8005 174.258 87.7957 174.451 87.8056ZM8.68224 87.8056C9.06886 87.8253 9.44279 87.9025 9.79435 88.0302C9.91171 88.0728 10.0264 88.1214 10.1384 88.1749C10.2503 88.2283 10.3594 88.2869 10.4652 88.3505C10.5183 88.3825 10.5704 88.4157 10.6218 88.45C10.7244 88.5187 10.8237 88.5921 10.9193 88.6701C11.1103 88.8262 11.2863 89.0007 11.4448 89.1909C11.6034 89.3814 11.7446 89.5875 11.865 89.8075C11.895 89.8624 11.9234 89.9183 11.9508 89.9748C12.0057 90.088 12.0552 90.2044 12.0991 90.3238C12.2089 90.6225 12.284 90.94 12.3175 91.2712C12.5317 93.3916 10.9879 95.2842 8.86973 95.4989C6.75156 95.7134 4.86091 94.1687 4.64644 92.0483C4.57942 91.3857 4.68411 90.7455 4.92428 90.1715C5.06842 89.8271 5.26105 89.5065 5.49502 89.2196C5.5729 89.1241 5.6553 89.0322 5.74198 88.9445C5.82885 88.8566 5.92017 88.7729 6.0153 88.6935C6.06285 88.6538 6.11111 88.6148 6.16062 88.5774C6.25954 88.5026 6.36228 88.4323 6.46858 88.3671C6.52178 88.3345 6.57627 88.3038 6.63121 88.2737C6.74093 88.2135 6.85383 88.1581 6.97004 88.1086C7.02824 88.0838 7.08726 88.0605 7.14698 88.0385C7.26634 87.9945 7.38866 87.9562 7.51367 87.9239C7.70121 87.8755 7.89481 87.8408 8.09344 87.8207C8.29213 87.8005 8.48875 87.7957 8.68224 87.8056ZM166.722 57.8811C168.851 57.8811 170.577 59.6089 170.577 61.7402C170.577 63.8715 168.851 65.5993 166.722 65.5993C164.592 65.5993 162.866 63.8715 162.866 61.7402C162.867 59.6089 164.592 57.8811 166.722 57.8811ZM12.3363 57.8811C14.4653 57.8811 16.1913 59.6089 16.1914 61.7402C16.1914 63.8715 14.4654 65.5993 12.3363 65.5993C10.2074 65.599 8.48121 63.8713 8.48121 61.7402C8.48131 59.6091 10.2074 57.8813 12.3363 57.8811ZM51.8397 17.7465C53.9688 17.7465 55.6947 19.4744 55.6948 21.6056C55.6948 23.7369 53.9688 25.4647 51.8397 25.4647C49.7106 25.4647 47.9846 23.7369 47.9846 21.6056C47.9847 19.4744 49.7107 17.7465 51.8397 17.7465ZM108.326 15.2698C110.444 15.0551 112.335 16.5999 112.55 18.7204C112.764 20.8408 111.22 22.7341 109.102 22.9488C106.984 23.1633 105.094 21.6184 104.879 19.4982C104.664 17.3777 106.208 15.4845 108.326 15.2698Z" fill="white"/>
<path d="M130.484 97.5988C122.594 93.6346 112.997 97.1224 109.486 105.23L107.353 110.157C108.468 109.059 110.048 108.576 111.585 108.864L113.521 109.227C121.414 110.708 129.01 105.5 130.484 97.5988Z" fill="white"/>
<path d="M71.2952 105.23C67.784 97.1224 58.1874 93.6346 50.2977 97.5988C51.7715 105.5 59.3677 110.708 67.2601 109.227L69.1959 108.864C70.7329 108.576 72.3135 109.059 73.4283 110.157L71.2952 105.23Z" fill="white"/>
<path d="M40.855 39.1811C40.821 39.1969 35.8215 41.529 34.1176 46.0769C32.4141 50.6243 34.6478 55.6712 34.6635 55.7066C34.6635 55.7066 39.6912 53.3741 41.4009 48.8107C43.1091 44.2508 40.8584 39.1887 40.855 39.1811Z" fill="white"/>
<path d="M159.505 30.3413C159.478 30.3552 152.187 34.1515 149.954 41.0307C147.726 47.8959 151.375 55.2414 151.404 55.298C151.43 55.2842 158.721 51.4878 160.954 44.6087C163.182 37.744 159.533 30.3991 159.505 30.3413Z" fill="white"/>
<path d="M18.7883 30.3413C18.7596 30.3991 15.1107 37.744 17.3389 44.6087C19.5718 51.4878 26.8627 55.2842 26.8893 55.298C26.9175 55.2414 30.567 47.8959 28.3387 41.0307C26.1058 34.1515 18.8149 30.3552 18.7883 30.3413Z" fill="white"/>
<path d="M81.6068 42.3121C76.3946 38.9754 69.3292 40.7164 69.3292 40.7164C69.339 40.7669 70.7329 47.8789 75.9265 51.2038C81.1285 54.5338 88.1766 52.8062 88.2041 52.7994C88.2041 52.7994 86.819 45.6487 81.6068 42.3121Z" fill="white"/>
<path d="M128.829 24.1683C128.829 24.1683 124.042 26.9626 122.767 31.6664C121.5 36.3471 124.187 41.1552 124.214 41.2026C124.214 41.2026 129.001 38.4084 130.275 33.7045C131.549 29.0006 128.829 24.1683 128.829 24.1683Z" fill="white"/>
<path d="M85.7646 0C85.7459 0.0177999 79.6016 5.8907 79.6077 13.1262C79.6139 20.3647 85.7729 26.229 85.7864 26.2418C85.7864 26.2418 91.9501 20.3621 91.944 13.1156C91.9379 5.88044 85.7837 0.0182292 85.7646 0Z" fill="white"/>
<path d="M211.953 68.0938C213.016 68.0521 214.193 68 215.485 67.9375C216.61 67.8959 217.922 67.8542 219.423 67.8125C220.943 67.7709 222.61 67.75 224.423 67.75C227.673 67.75 230.548 68.1875 233.049 69.0625C235.549 69.9167 237.653 71.2188 239.362 72.9688C241.091 74.7188 242.393 76.9167 243.268 79.5625C244.164 82.2084 244.612 85.3125 244.612 88.875C244.612 92.4375 244.133 95.5729 243.174 98.2813C242.216 100.969 240.841 103.219 239.049 105.031C237.278 106.844 235.122 108.208 232.58 109.125C230.038 110.042 227.173 110.5 223.985 110.5H211.953V68.0938ZM225.048 105.031C226.986 105.031 228.715 104.625 230.236 103.813C231.757 102.979 233.049 101.844 234.111 100.406C235.174 98.9479 235.986 97.25 236.549 95.3125C237.111 93.3542 237.393 91.25 237.393 89C237.393 86.3959 237.111 84.1146 236.549 82.1563C235.986 80.1771 235.174 78.5209 234.111 77.1875C233.049 75.8542 231.757 74.8542 230.236 74.1875C228.715 73.5209 226.986 73.1875 225.048 73.1875C223.985 73.1875 223.069 73.1979 222.298 73.2188C221.527 73.2396 220.902 73.2604 220.423 73.2813C219.86 73.3229 219.391 73.3542 219.016 73.375V105.031H225.048Z" fill="white"/>
<path d="M256.519 78.2188L259.738 81.5938C259.967 81.0729 260.259 80.5834 260.613 80.125C260.988 79.6459 261.415 79.2292 261.895 78.875C262.395 78.5209 262.947 78.2396 263.551 78.0313C264.176 77.8229 264.853 77.7188 265.582 77.7188C266.187 77.7188 266.77 77.7709 267.333 77.875C267.895 77.9584 268.51 78.1146 269.177 78.3438C269.197 78.3854 269.218 78.5521 269.239 78.8438C269.281 79.1354 269.302 79.5 269.302 79.9375C269.302 80.2709 269.281 80.6667 269.239 81.125C269.197 81.5625 269.124 82.0209 269.02 82.5C268.937 82.9584 268.802 83.4167 268.614 83.875C268.447 84.3334 268.229 84.7292 267.958 85.0625L267.364 85.2188C266.947 85.0104 266.478 84.8334 265.958 84.6875C265.457 84.5417 264.937 84.4688 264.395 84.4688C263.561 84.4688 262.864 84.5313 262.301 84.6563C261.738 84.7604 261.28 84.875 260.926 85C260.509 85.1459 260.176 85.3125 259.926 85.5V110.5H253.238V84.2813L250.769 81.75V78.2188H256.519Z" fill="white"/>
<path d="M272.989 78.5625H280.021L286.115 101.906L287.459 108.156L288.834 101.906L295.116 78.5625H302.367L288.147 125.063H281.365L286.584 110.5H282.584L272.989 78.5625Z" fill="white"/>
<path d="M306.773 101.375C306.773 99.6459 307.023 98.1771 307.523 96.9688C308.023 95.7604 308.753 94.7709 309.711 94C310.69 93.2292 311.868 92.6563 313.243 92.2813C314.639 91.8854 316.232 91.6354 318.024 91.5313L324.994 91.1563V88.6563C324.994 87.5313 324.889 86.6042 324.681 85.875C324.494 85.1459 324.171 84.5625 323.712 84.125C323.254 83.6875 322.639 83.3854 321.868 83.2188C321.118 83.0313 320.181 82.9375 319.056 82.9375C317.931 82.9375 316.857 83.0625 315.837 83.3125C314.836 83.5625 313.961 83.8334 313.211 84.125C312.315 84.4792 311.492 84.875 310.742 85.3125C310.284 84.6667 309.919 84.0521 309.649 83.4688C309.378 82.8646 309.169 82.3229 309.024 81.8438C308.836 81.3021 308.711 80.7813 308.648 80.2813C309.649 79.7813 310.722 79.3438 311.868 78.9688C312.868 78.6354 314.014 78.3334 315.305 78.0625C316.618 77.7917 317.993 77.6563 319.431 77.6563C321.806 77.6563 323.775 77.8646 325.337 78.2813C326.9 78.6979 328.14 79.3334 329.056 80.1875C329.994 81.0209 330.64 82.0834 330.994 83.375C331.369 84.6459 331.557 86.1563 331.557 87.9063V105.344L334.182 108.531V110.5H328.4L325.994 107.719H324.869C324.764 107.823 324.483 108.063 324.025 108.438C323.587 108.792 323.014 109.177 322.306 109.594C321.618 109.99 320.827 110.344 319.931 110.656C319.056 110.969 318.118 111.125 317.118 111.125C315.555 111.125 314.139 110.896 312.868 110.438C311.597 109.958 310.503 109.292 309.586 108.438C308.69 107.563 307.992 106.531 307.492 105.344C307.013 104.135 306.773 102.813 306.773 101.375ZM313.586 100.813C313.586 101.771 313.722 102.573 313.993 103.219C314.264 103.844 314.639 104.344 315.118 104.719C315.618 105.094 316.212 105.354 316.899 105.5C317.608 105.646 318.389 105.719 319.243 105.719C320.035 105.719 320.774 105.625 321.462 105.438C322.17 105.229 322.785 105 323.306 104.75C323.91 104.479 324.473 104.156 324.994 103.781V95.375L318.712 95.7813C317.733 95.8438 316.91 96.0104 316.243 96.2813C315.597 96.5521 315.076 96.9063 314.68 97.3438C314.284 97.7813 314.003 98.3021 313.836 98.9063C313.67 99.4896 313.586 100.125 313.586 100.813Z" fill="white"/>
<path d="M340.245 95.0938C340.245 92.1146 340.661 89.5313 341.495 87.3438C342.328 85.1563 343.453 83.3438 344.87 81.9063C346.308 80.4688 347.964 79.4063 349.839 78.7188C351.715 78.0104 353.704 77.6563 355.809 77.6563C356.6 77.6563 357.309 77.6979 357.934 77.7813C358.559 77.8438 359.09 77.9271 359.528 78.0313C360.048 78.1354 360.507 78.2604 360.903 78.4063V65.5313H367.56V105.344L370.31 108.531V110.5H364.059L361.903 108.031H360.84C360.736 108.135 360.517 108.354 360.184 108.688C359.871 109.021 359.413 109.365 358.809 109.719C358.225 110.073 357.496 110.396 356.621 110.688C355.767 110.979 354.756 111.125 353.59 111.125C352.048 111.125 350.485 110.813 348.902 110.188C347.318 109.563 345.881 108.594 344.589 107.281C343.318 105.969 342.276 104.313 341.464 102.313C340.651 100.292 340.245 97.8854 340.245 95.0938ZM347.245 95.0938C347.245 97.0313 347.443 98.6875 347.839 100.063C348.256 101.438 348.839 102.573 349.589 103.469C350.339 104.344 351.256 104.99 352.34 105.406C353.423 105.802 354.642 106 355.996 106C356.517 106 357.069 105.917 357.652 105.75C358.236 105.583 358.767 105.385 359.246 105.156C359.809 104.927 360.361 104.646 360.903 104.313V83.1875C360.632 83.0209 360.226 82.8542 359.684 82.6875C359.163 82.5209 358.434 82.4375 357.496 82.4375C354.225 82.4375 351.694 83.5209 349.902 85.6875C348.131 87.8334 347.245 90.9688 347.245 95.0938Z" fill="white"/>
<path d="M376.248 94.8438C376.248 91.8438 376.612 89.2604 377.342 87.0938C378.071 84.9271 379.092 83.1459 380.404 81.75C381.717 80.3542 383.28 79.3334 385.092 78.6875C386.926 78.0209 388.936 77.6875 391.124 77.6875C393.145 77.6875 394.947 78.0313 396.531 78.7188C398.135 79.3854 399.489 80.3334 400.593 81.5625C401.698 82.7917 402.542 84.2604 403.125 85.9688C403.708 87.6771 404 89.5625 404 91.625C404 92.3334 403.969 92.9896 403.906 93.5938C403.844 94.1979 403.771 94.7188 403.687 95.1563C403.604 95.6771 403.51 96.1459 403.406 96.5625L382.905 96.4688C382.925 98.3229 383.123 99.8646 383.498 101.094C383.873 102.302 384.425 103.26 385.155 103.969C385.905 104.677 386.842 105.177 387.967 105.469C389.093 105.74 390.426 105.875 391.968 105.875C393.28 105.875 394.458 105.792 395.499 105.625C396.541 105.458 397.427 105.26 398.156 105.031C398.989 104.781 399.739 104.49 400.406 104.156C400.718 104.885 400.958 105.563 401.125 106.188C401.312 106.813 401.448 107.354 401.531 107.813C401.614 108.354 401.677 108.833 401.719 109.25C401.031 109.604 400.198 109.917 399.218 110.188C398.385 110.417 397.364 110.625 396.156 110.813C394.947 111.021 393.551 111.125 391.968 111.125C389.468 111.125 387.238 110.844 385.28 110.281C383.342 109.719 381.696 108.802 380.342 107.531C379.008 106.24 377.987 104.563 377.279 102.5C376.592 100.417 376.248 97.8646 376.248 94.8438ZM397.312 91.9063V90.8438C397.312 89.5313 397.145 88.375 396.812 87.375C396.499 86.3542 396.062 85.5 395.499 84.8125C394.937 84.125 394.27 83.6042 393.499 83.25C392.728 82.8959 391.895 82.7188 390.999 82.7188C389.686 82.7188 388.53 82.8959 387.53 83.25C386.53 83.5834 385.686 84.125 384.998 84.875C384.332 85.6042 383.832 86.5521 383.498 87.7188C383.165 88.8854 382.998 90.2813 382.998 91.9063H397.312Z" fill="white"/>
</svg>
