<svg width="193" height="246" viewBox="0 0 193 246" fill="none" xmlns="http://www.w3.org/2000/svg">
<path fill-rule="evenodd" clip-rule="evenodd" d="M120.464 18.1425C119.994 13.506 115.85 10.1278 111.209 10.5972C106.567 11.0667 103.186 15.2058 103.655 19.8423C104.019 23.4328 106.587 26.2667 109.882 27.1456C109.898 27.4385 109.911 27.7299 109.919 28.0228C110.462 36.5554 106.075 44.2644 99.9785 50.496C99.1422 42.7682 94.8285 35.474 88.3869 31.0868C82.56 27.1184 78.8286 20.2833 78.643 13.2417C78.6352 12.9996 78.631 12.7572 78.631 12.5143V10.7343H74.0234V12.5143C74.0234 12.8067 74.0283 13.0985 74.0377 13.39C74.2615 21.8694 78.7539 30.096 85.7696 34.8744C91.5967 38.8427 95.3278 45.6778 95.5135 52.7195C95.5212 52.9615 95.5255 53.2039 95.5255 53.4469V54.623C90.0769 59.6879 86.2444 65.9768 83.5041 72.6569C81.4477 65.0829 76.7177 58.2314 70.222 53.7765C62.7619 48.6607 57.9996 39.8785 57.7844 30.8425C57.776 30.5566 57.7717 30.2697 57.7717 29.9825V29.5765C61.2888 28.5566 63.8604 25.3162 63.8604 21.4739C63.8603 16.8137 60.0784 13.0357 55.4131 13.0357C50.7479 13.0357 46.966 16.8137 46.9659 21.4739C46.9659 25.356 49.591 28.6234 53.1641 29.6072V29.9825C53.1641 30.3152 53.1693 30.6475 53.1791 30.9789C53.4289 41.4515 58.9462 51.626 67.5913 57.5551C75.0515 62.6709 79.8138 71.4529 80.0289 80.489C80.0374 80.775 80.0416 81.0619 80.0416 81.3491V83.4309C79.3145 86.5188 78.7956 89.6651 78.5658 92.8745C75.3381 90.0215 71.6105 87.7114 67.6183 86.0776C67.6132 86.0587 67.6096 86.0394 67.604 86.0206C67.2758 84.9753 66.9451 84.1243 66.5759 83.2189C63.1154 74.9618 57.581 67.2521 49.5089 62.5608C41.9452 58.231 33.1733 57.301 24.9195 58.042C24.5733 58.0744 24.2266 58.1113 23.8801 58.1507C22.6147 55.0844 19.5942 52.9255 16.068 52.9255C11.403 52.9257 7.6209 56.7036 7.6208 61.3637C7.6208 66.0239 11.4029 69.8017 16.068 69.8019C20.2699 69.8019 23.7549 66.7372 24.4058 62.7234C24.72 62.6877 25.0349 62.6539 25.3492 62.6245C32.9243 61.9319 40.8167 62.8665 47.2052 66.5469C53.8867 70.4024 58.8674 77.0315 62.0215 84.2789C59.347 83.6472 56.6074 83.3178 53.8638 83.3253C53.6976 83.3257 53.5313 83.3276 53.3651 83.3305C49.3768 83.401 45.3875 84.1882 41.5844 85.8019C39.6419 86.5508 37.6992 87.2996 35.7567 88.0485C33.6385 88.8654 31.4437 89.4825 29.2106 89.8877C26.3897 90.4002 23.5074 90.5725 20.6448 90.4046C20.6406 90.3535 20.638 90.3022 20.6329 90.251C20.1629 85.6144 16.0195 82.2363 11.378 82.7057C7.02632 83.1459 3.78217 86.8114 3.78115 91.0885C3.78108 91.3735 3.7953 91.6612 3.82465 91.9508C3.86871 92.3855 3.94509 92.8093 4.05113 93.2198C4.08647 93.3566 4.12478 93.4921 4.16662 93.6258C4.25029 93.8934 4.34684 94.1548 4.45534 94.4094C4.50961 94.5368 4.56689 94.6624 4.62707 94.7862C4.98803 95.529 5.45376 96.2077 6.0032 96.8052C6.18641 97.0044 6.37883 97.1947 6.57989 97.3752C6.78084 97.5557 6.99036 97.7264 7.20759 97.8869C8.83737 99.091 10.9039 99.716 13.0795 99.496C16.0331 99.1973 18.4749 97.4117 19.7404 94.9585C19.7489 94.9592 19.7574 94.9602 19.7659 94.9608C20.2556 94.9969 20.7459 95.0241 21.2365 95.0424C21.727 95.0608 22.2178 95.0703 22.7087 95.0709C23.1997 95.0715 23.6908 95.0633 24.1815 95.0462C24.9175 95.0206 25.6528 94.9745 26.3863 94.9091C26.8754 94.8655 27.3637 94.8131 27.8509 94.7518C28.5814 94.6599 29.3095 94.5485 30.034 94.4169C31.8715 94.0835 33.6856 93.6208 35.4597 93.0385C35.4683 94.9321 35.4766 96.8256 35.4852 98.7192C35.5241 107.235 35.5634 115.751 35.6022 124.267L35.5887 127.167L38.5187 127.18C46.3666 126.94 53.5412 133.997 53.3906 141.91C53.3964 143.189 53.4027 144.467 53.4086 145.746L53.4026 147.031L54.406 147.874C59.031 151.688 63.6562 155.503 68.2812 159.317L72.6751 163L72.6946 157.253C72.635 144.212 72.5756 131.171 72.5161 118.13L72.5273 115.632L70.0038 115.62L69.4669 115.624C58.2004 115.588 47.3949 107.878 43.7562 97.143C43.3971 96.1239 43.0995 95.0907 42.8601 94.0349C42.5971 92.8729 42.3349 91.7105 42.0719 90.5484C42.4624 90.3979 42.8528 90.2472 43.2433 90.0967C43.3812 90.0381 43.5195 89.9805 43.658 89.9244C44.2118 89.6999 44.77 89.4953 45.3318 89.3101C45.6127 89.2175 45.8944 89.1293 46.177 89.0464C46.4594 88.9635 46.7428 88.886 47.0267 88.8127C47.7369 88.6292 48.4516 88.4754 49.1692 88.3504C49.4563 88.3005 49.7437 88.2549 50.0316 88.2141C50.7515 88.1121 51.4736 88.0382 52.1967 87.9924C52.4858 87.974 52.7751 87.9607 53.0644 87.9512C53.3536 87.9416 53.6428 87.9363 53.932 87.9354C54.2216 87.9345 54.5111 87.9375 54.8005 87.9452C55.8127 87.972 56.8232 88.0509 57.8279 88.1796C58.1149 88.2164 58.4014 88.2576 58.6873 88.3025C59.2593 88.3922 59.829 88.4981 60.3957 88.6194C60.9624 88.7407 61.5261 88.8778 62.086 89.0299C63.4859 89.4101 64.8623 89.8845 66.2032 90.4473C67.276 90.8975 68.3261 91.4043 69.3476 91.9635C70.1138 92.3829 70.8638 92.8318 71.5952 93.309C72.0826 93.627 72.5619 93.9574 73.032 94.3001C73.9723 94.9854 74.876 95.7196 75.7378 96.498C75.9533 96.6927 76.1666 96.8896 76.3767 97.0898C76.5868 97.29 76.7939 97.4932 76.9984 97.6989C77.203 97.9045 77.4048 98.1127 77.6036 98.3236C79.2931 100.117 80.7713 102.1 81.9802 104.24C82.1224 104.491 82.2603 104.745 82.3949 105.001C82.4622 105.129 82.529 105.258 82.5944 105.386C82.7906 105.774 82.9783 106.165 83.1568 106.562C83.6329 107.619 84.0443 108.708 84.386 109.826C84.5569 110.385 84.7107 110.951 84.8457 111.523C84.9469 111.953 85.0376 112.386 85.1179 112.822C85.1715 113.114 85.2201 113.407 85.2642 113.701C85.3082 113.995 85.3476 114.292 85.3819 114.589C85.4379 114.979 85.4904 115.365 85.5394 115.748C85.6374 116.516 85.7214 117.271 85.7914 118.018C86.2459 122.871 86.1075 127.364 85.3781 132.436L85.2522 133.507L85.9938 134.288C86.1337 134.437 86.2779 134.583 86.4258 134.724C87.1661 135.432 88.0038 136.038 88.9058 136.528C89.2664 136.724 89.6375 136.901 90.0165 137.059C90.3955 137.217 90.7827 137.356 91.1759 137.475C91.3725 137.534 91.5705 137.589 91.7698 137.638C92.7663 137.884 93.7935 138 94.8175 137.974C94.915 137.972 95.0126 137.97 95.11 137.965C95.3045 137.957 95.4988 137.944 95.6927 137.926C95.7898 137.917 95.8868 137.906 95.9837 137.894C96.2741 137.86 96.5634 137.814 96.8506 137.757C96.9463 137.738 97.0418 137.719 97.1371 137.697C97.5179 137.612 97.8947 137.508 98.2657 137.386C98.5439 137.294 98.819 137.193 99.0899 137.081C99.2705 137.006 99.4493 136.927 99.6261 136.844C99.9796 136.678 100.325 136.494 100.66 136.293C100.995 136.093 101.321 135.877 101.634 135.645C102.183 135.239 102.695 134.785 103.161 134.288L103.903 133.507L103.777 132.436C103.764 132.345 103.754 132.255 103.741 132.164L103.74 132.162C103.045 127.202 102.917 122.784 103.364 118.018C103.434 117.271 103.518 116.516 103.616 115.748C103.665 115.365 103.717 114.979 103.773 114.589C103.807 114.292 103.847 113.995 103.891 113.701C103.935 113.407 103.984 113.114 104.037 112.822C104.117 112.386 104.208 111.953 104.309 111.523C104.444 110.951 104.598 110.385 104.769 109.826C105.111 108.708 105.522 107.619 105.998 106.562C106.177 106.165 106.364 105.774 106.561 105.386C106.626 105.258 106.693 105.129 106.76 105.001C106.895 104.745 107.033 104.491 107.176 104.24C108.384 102.1 109.862 100.116 111.551 98.3236C111.75 98.1127 111.952 97.9045 112.157 97.6989C112.361 97.4932 112.568 97.29 112.778 97.0898C112.988 96.8896 113.202 96.6927 113.417 96.498C114.279 95.7196 115.183 94.9854 116.123 94.3001C116.593 93.9574 117.072 93.627 117.56 93.309C118.291 92.8318 119.041 92.3829 119.807 91.9635C120.829 91.4043 121.879 90.8975 122.952 90.4473C124.293 89.8845 125.669 89.4101 127.069 89.0299C127.629 88.8778 128.193 88.7407 128.759 88.6194C129.326 88.4981 129.896 88.3922 130.468 88.3025C130.754 88.2576 131.041 88.2164 131.328 88.1796C132.332 88.0509 133.343 87.972 134.355 87.9452C134.644 87.9375 134.934 87.9345 135.223 87.9354C135.512 87.9363 135.802 87.9416 136.091 87.9512C136.38 87.9607 136.67 87.974 136.959 87.9924C137.682 88.0382 138.404 88.1121 139.123 88.2141C139.411 88.2549 139.699 88.3005 139.986 88.3504C140.704 88.4754 141.418 88.6292 142.128 88.8127C142.412 88.886 142.696 88.9635 142.978 89.0464C143.261 89.1293 143.542 89.2175 143.823 89.3101C144.385 89.4953 144.943 89.6999 145.497 89.9244C145.636 89.9805 145.774 90.038 145.912 90.0967C146.303 90.2473 146.693 90.3978 147.084 90.5484C146.821 91.7106 146.558 92.8729 146.295 94.0349C146.056 95.0907 145.758 96.1239 145.399 97.143C141.702 108.048 130.61 115.832 119.151 115.62L116.628 115.632L116.639 118.13C116.579 131.171 116.52 144.212 116.461 157.253L116.48 163L120.874 159.317C125.499 155.503 130.124 151.688 134.749 147.874L135.753 147.031L135.747 145.746C135.752 144.467 135.759 143.189 135.764 141.91C135.614 133.997 142.788 126.94 150.636 127.18L153.566 127.167L153.553 124.267C153.592 115.751 153.631 107.235 153.67 98.7192C153.678 96.8261 153.688 94.9331 153.696 93.04C153.999 93.1393 154.302 93.2355 154.607 93.3277C154.769 93.3764 154.93 93.4248 155.092 93.4715C155.416 93.5651 155.741 93.6542 156.067 93.7397C157.208 94.039 158.362 94.2892 159.525 94.4881C159.766 94.5295 160.009 94.5687 160.251 94.6057C160.737 94.6798 161.224 94.7448 161.711 94.8012C161.955 94.8294 162.199 94.8554 162.443 94.8791C162.932 94.9267 163.422 94.9654 163.912 94.9952C165.137 95.0698 166.365 95.089 167.592 95.0529C168.083 95.0385 168.573 95.0154 169.063 94.9833C169.311 94.967 169.558 94.9479 169.805 94.9271C170.156 95.6144 170.594 96.246 171.108 96.8052C171.291 97.0044 171.484 97.1947 171.685 97.3752C171.886 97.5557 172.095 97.7264 172.312 97.8869C173.942 99.091 176.009 99.716 178.184 99.496C181.085 99.2026 183.495 97.4756 184.778 95.0896C184.907 94.8512 185.024 94.6063 185.129 94.3555C185.182 94.2299 185.231 94.1026 185.278 93.9742C185.371 93.7177 185.452 93.4557 185.52 93.1891C185.691 92.5224 185.781 91.8267 185.781 91.114C185.781 90.8288 185.767 90.5409 185.738 90.251C185.268 85.6144 181.124 82.2363 176.483 82.7057C172.374 83.1213 169.256 86.4118 168.919 90.3776C166.043 90.5791 163.143 90.4373 160.302 89.9506C157.946 89.5476 155.63 88.909 153.398 88.0485C151.456 87.2996 149.513 86.5508 147.571 85.8019C143.609 84.121 139.446 83.3367 135.292 83.3253C135.126 83.3248 134.96 83.3255 134.793 83.3275C132.425 83.3562 130.063 83.6348 127.745 84.1403C130.92 76.9687 135.777 70.3551 142.357 66.5469C147.84 63.3821 154.47 62.2524 161.009 62.4305C161.159 62.4346 161.309 62.4391 161.459 62.4447C161.991 66.5944 165.536 69.8019 169.835 69.8019C174.5 69.8019 178.282 66.024 178.282 61.3637C178.282 56.7035 174.5 52.9255 169.835 52.9255C166.418 52.9255 163.478 54.9531 162.147 57.8682C161.81 57.8525 161.473 57.8386 161.136 57.8293C153.991 57.6417 146.534 58.8338 140.053 62.5608C131.679 67.454 126.197 75.6094 122.745 84.1396C122.521 84.711 122.314 85.261 122.112 85.8468C118.021 87.4444 114.194 89.7521 110.877 92.625C112.14 79.5576 117.374 66.001 127.023 57.3461C135.343 50.3206 142.931 39.7943 142.17 27.8775C142.128 26.4108 141.981 24.941 141.941 23.7145L137.335 23.8359C137.39 25.3995 137.528 26.6948 137.564 28.0228C138.21 38.1673 131.888 47.1483 124.008 53.8656C112.586 64.2717 107.321 79.0606 106.147 93.8955C106.089 95.1015 106.077 96.3205 106.139 97.5603C102.431 102.233 99.9118 107.82 99.2099 113.957L99.2009 114.025C98.6098 117.876 98.3998 122.149 98.5702 126.3C98.6011 127.054 98.6446 127.805 98.7007 128.548C98.7119 128.697 98.7266 128.846 98.7389 128.995C96.1061 129.496 93.2377 129.437 90.4327 128.795C90.4687 128.341 90.502 127.886 90.5287 127.427C90.5722 126.678 90.6032 125.922 90.6217 125.164C90.7139 121.375 90.4915 117.526 89.9542 114.025L89.9452 113.957C89.2496 107.875 86.7695 102.334 83.1156 97.6869C83.0406 96.5236 83.0444 95.3229 83.1029 94.1195C83.3185 89.9215 84.1256 85.6573 85.2904 81.5356C87.9286 72.3865 92.393 63.4544 99.3771 57.3461C107.697 50.3206 115.286 39.7943 114.524 27.8775C114.517 27.6089 114.506 27.3402 114.493 27.0729C118.294 25.9352 120.878 22.2332 120.464 18.1425ZM147.708 121.535C137.986 122.927 129.904 132.008 130.184 141.91C130.187 142.761 130.192 143.611 130.196 144.461C127.402 146.808 124.61 149.155 121.817 151.502C121.769 141.185 121.722 130.869 121.675 120.553C132.437 119.727 142.47 113.105 147.626 103.72C147.653 109.658 147.681 115.596 147.708 121.535ZM41.5289 103.72C46.6853 113.105 56.7179 119.727 67.4803 120.553C67.4332 130.869 67.3856 141.185 67.3386 151.502C64.5455 149.155 61.7526 146.808 58.9596 144.461C58.9635 143.611 58.9677 142.761 58.9716 141.91C59.2508 132.008 51.1687 122.927 41.4472 121.535C41.4743 115.596 41.5018 109.658 41.5289 103.72ZM177.533 87.2702C177.918 87.2898 178.291 87.3665 178.641 87.4934C178.758 87.5358 178.872 87.5841 178.984 87.6373C179.095 87.6904 179.204 87.7485 179.309 87.8118C179.362 87.8435 179.414 87.8765 179.465 87.9107C179.567 87.9789 179.666 88.0519 179.761 88.1294C179.952 88.2846 180.127 88.458 180.285 88.6471C180.443 88.8364 180.584 89.0412 180.703 89.2599C180.733 89.3144 180.762 89.37 180.789 89.4262C180.844 89.5387 180.893 89.6544 180.937 89.773C181.046 90.0699 181.121 90.3854 181.154 90.7147C181.314 92.2951 180.489 93.7484 179.177 94.4664C178.849 94.6459 178.491 94.7793 178.109 94.8574C177.982 94.8835 177.852 94.9032 177.72 94.9166C177.456 94.9432 177.196 94.943 176.942 94.9173C176.816 94.9045 176.69 94.8855 176.567 94.8604C174.963 94.5344 173.687 93.1994 173.514 91.4871C173.447 90.8285 173.551 90.1921 173.79 89.6217C173.934 89.2794 174.126 88.9608 174.359 88.6756C174.437 88.5806 174.519 88.4893 174.605 88.4021C174.691 88.3147 174.782 88.2316 174.877 88.1527C174.925 88.1132 174.973 88.0745 175.022 88.0373C175.12 87.963 175.223 87.8931 175.329 87.8283C175.382 87.7959 175.436 87.7653 175.491 87.7354C175.6 87.6756 175.712 87.6206 175.828 87.5713C175.886 87.5467 175.945 87.5236 176.004 87.5017C176.123 87.458 176.245 87.4199 176.37 87.3878C176.556 87.3397 176.749 87.3052 176.947 87.2852C177.145 87.2652 177.341 87.2604 177.533 87.2702ZM12.4286 87.2702C12.8137 87.2898 13.1861 87.3665 13.5363 87.4934C13.6531 87.5358 13.7674 87.5841 13.879 87.6373C13.9904 87.6904 14.099 87.7485 14.2044 87.8118C14.2573 87.8435 14.3092 87.8765 14.3604 87.9107C14.4626 87.9789 14.5615 88.0519 14.6567 88.1294C14.8469 88.2846 15.0223 88.458 15.1801 88.6471C15.3381 88.8364 15.4787 89.0412 15.5986 89.2599C15.6285 89.3144 15.6568 89.37 15.6841 89.4262C15.7387 89.5387 15.7881 89.6544 15.8318 89.773C15.9412 90.0699 16.0159 90.3854 16.0493 90.7147C16.2627 92.8221 14.725 94.7032 12.6153 94.9166C10.5057 95.1298 8.62258 93.5945 8.40898 91.4871C8.34223 90.8285 8.44649 90.1921 8.6857 89.6217C8.82926 89.2794 9.02112 88.9608 9.25415 88.6756C9.33172 88.5806 9.41379 88.4893 9.50012 88.4021C9.58665 88.3147 9.6776 88.2316 9.77235 88.1527C9.81971 88.1132 9.86778 88.0745 9.91709 88.0373C10.0156 87.963 10.1179 87.8931 10.2238 87.8283C10.2768 87.7959 10.3311 87.7653 10.3858 87.7354C10.4951 87.6756 10.6075 87.6206 10.7233 87.5713C10.7812 87.5467 10.84 87.5236 10.8995 87.5017C11.0184 87.458 11.1402 87.4199 11.2647 87.3878C11.4515 87.3397 11.6443 87.3052 11.8422 87.2852C12.0401 87.2652 12.2359 87.2604 12.4286 87.2702ZM169.835 57.5281C171.955 57.5281 173.674 59.2455 173.674 61.3637C173.674 63.482 171.955 65.1992 169.835 65.1992C167.714 65.1992 165.995 63.482 165.995 61.3637C165.995 59.2455 167.714 57.5281 169.835 57.5281ZM16.068 57.5281C18.1885 57.5281 19.9076 59.2455 19.9077 61.3637C19.9077 63.482 18.1886 65.1992 16.068 65.1992C13.9476 65.199 12.2284 63.4819 12.2284 61.3637C12.2285 59.2456 13.9477 57.5283 16.068 57.5281ZM55.4131 17.6383C57.5337 17.6383 59.2527 19.3556 59.2528 21.4739C59.2528 23.5922 57.5337 25.3094 55.4131 25.3094C53.2926 25.3094 51.5735 23.5922 51.5735 21.4739C51.5736 19.3556 53.2926 17.6383 55.4131 17.6383ZM111.673 15.1767C113.783 14.9633 115.666 16.4987 115.88 18.6062C116.094 20.7137 114.556 22.5954 112.446 22.8088C110.337 23.022 108.454 21.4866 108.24 19.3793C108.026 17.2718 109.563 15.3901 111.673 15.1767Z" fill="white"/>
<path d="M133.742 97.0037C125.884 93.0637 116.326 96.5302 112.829 104.589L110.704 109.485C111.814 108.394 113.389 107.914 114.919 108.2L116.847 108.561C124.708 110.033 132.274 104.857 133.742 97.0037Z" fill="white"/>
<path d="M74.7906 104.589C71.2935 96.5302 61.7354 93.0637 53.8773 97.0037C55.3452 104.857 62.911 110.033 70.7717 108.561L72.6998 108.2C74.2306 107.914 75.8049 108.394 76.9152 109.485L74.7906 104.589Z" fill="white"/>
<path d="M44.4724 38.9422C44.4386 38.9579 39.4591 41.2758 37.762 45.796C36.0654 50.3156 38.2901 55.3318 38.3057 55.3669C38.3057 55.3669 43.3133 53.0487 45.0161 48.5131C46.7175 43.9809 44.4758 38.9498 44.4724 38.9422Z" fill="white"/>
<path d="M162.647 30.1563C162.62 30.1701 155.358 33.9433 153.134 40.7805C150.915 47.6038 154.55 54.9045 154.578 54.9609C154.605 54.9471 161.866 51.1739 164.09 44.3367C166.309 37.5138 162.675 30.2137 162.647 30.1563Z" fill="white"/>
<path d="M22.4942 30.1563C22.4655 30.2137 18.8313 37.5138 21.0506 44.3367C23.2745 51.1739 30.5362 54.9471 30.5627 54.9609C30.5908 54.9045 34.2257 47.6038 32.0063 40.7805C29.7823 33.9433 22.5207 30.1701 22.4942 30.1563Z" fill="white"/>
<path d="M85.0609 42.0541C79.8696 38.7377 72.8325 40.4681 72.8325 40.4681C72.8423 40.5183 74.2306 47.587 79.4034 50.8916C84.5846 54.2013 91.6044 52.4842 91.6318 52.4775C91.6318 52.4775 90.2522 45.3704 85.0609 42.0541Z" fill="white"/>
<path d="M132.094 24.0209C132.094 24.0209 127.326 26.7982 126.057 31.4733C124.794 36.1255 127.471 40.9042 127.497 40.9513C127.497 40.9513 132.265 38.1742 133.534 33.499C134.803 28.8237 132.094 24.0209 132.094 24.0209Z" fill="white"/>
<path d="M89.202 0C89.1835 0.0176914 83.0638 5.85478 83.0699 13.0461C83.076 20.2405 89.2104 26.0691 89.2238 26.0818C89.2238 26.0818 95.3628 20.2379 95.3567 13.0357C95.3507 5.84458 89.2211 0.018118 89.202 0Z" fill="white"/>
<path d="M0 188.594C1.0625 188.552 2.23958 188.5 3.53125 188.438C4.65625 188.396 5.96875 188.354 7.46875 188.312C8.98958 188.271 10.6562 188.25 12.4688 188.25C15.7188 188.25 18.5938 188.688 21.0938 189.562C23.5938 190.417 25.6979 191.719 27.4062 193.469C29.1354 195.219 30.4375 197.417 31.3125 200.062C32.2083 202.708 32.6562 205.812 32.6562 209.375C32.6562 212.938 32.1771 216.073 31.2188 218.781C30.2604 221.469 28.8854 223.719 27.0938 225.531C25.3229 227.344 23.1667 228.708 20.625 229.625C18.0833 230.542 15.2188 231 12.0312 231H0V188.594ZM13.0938 225.531C15.0312 225.531 16.7604 225.125 18.2812 224.312C19.8021 223.479 21.0938 222.344 22.1562 220.906C23.2188 219.448 24.0312 217.75 24.5938 215.812C25.1562 213.854 25.4375 211.75 25.4375 209.5C25.4375 206.896 25.1562 204.615 24.5938 202.656C24.0312 200.677 23.2188 199.021 22.1562 197.688C21.0938 196.354 19.8021 195.354 18.2812 194.688C16.7604 194.021 15.0312 193.688 13.0938 193.688C12.0312 193.688 11.1146 193.698 10.3438 193.719C9.57292 193.74 8.94792 193.76 8.46875 193.781C7.90625 193.823 7.4375 193.854 7.0625 193.875V225.531H13.0938Z" fill="white"/>
<path d="M44.5625 198.719L47.7812 202.094C48.0104 201.573 48.3021 201.083 48.6562 200.625C49.0312 200.146 49.4583 199.729 49.9375 199.375C50.4375 199.021 50.9896 198.74 51.5938 198.531C52.2188 198.323 52.8958 198.219 53.625 198.219C54.2292 198.219 54.8125 198.271 55.375 198.375C55.9375 198.458 56.5521 198.615 57.2188 198.844C57.2396 198.885 57.2604 199.052 57.2812 199.344C57.3229 199.635 57.3438 200 57.3438 200.438C57.3438 200.771 57.3229 201.167 57.2812 201.625C57.2396 202.062 57.1667 202.521 57.0625 203C56.9792 203.458 56.8438 203.917 56.6562 204.375C56.4896 204.833 56.2708 205.229 56 205.562L55.4062 205.719C54.9896 205.51 54.5208 205.333 54 205.188C53.5 205.042 52.9792 204.969 52.4375 204.969C51.6042 204.969 50.9062 205.031 50.3438 205.156C49.7812 205.26 49.3229 205.375 48.9688 205.5C48.5521 205.646 48.2188 205.812 47.9688 206V231H41.2812V204.781L38.8125 202.25V198.719H44.5625Z" fill="white"/>
<path d="M61.0312 199.062H68.0625L74.1562 222.406L75.5 228.656L76.875 222.406L83.1562 199.062H90.4062L76.1875 245.562H69.4062L74.625 231H70.625L61.0312 199.062Z" fill="white"/>
<path d="M94.8125 221.875C94.8125 220.146 95.0625 218.677 95.5625 217.469C96.0625 216.26 96.7917 215.271 97.75 214.5C98.7292 213.729 99.9062 213.156 101.281 212.781C102.677 212.385 104.271 212.135 106.062 212.031L113.031 211.656V209.156C113.031 208.031 112.927 207.104 112.719 206.375C112.531 205.646 112.208 205.062 111.75 204.625C111.292 204.188 110.677 203.885 109.906 203.719C109.156 203.531 108.219 203.438 107.094 203.438C105.969 203.438 104.896 203.562 103.875 203.812C102.875 204.062 102 204.333 101.25 204.625C100.354 204.979 99.5312 205.375 98.7812 205.812C98.3229 205.167 97.9583 204.552 97.6875 203.969C97.4167 203.365 97.2083 202.823 97.0625 202.344C96.875 201.802 96.75 201.281 96.6875 200.781C97.6875 200.281 98.7604 199.844 99.9062 199.469C100.906 199.135 102.052 198.833 103.344 198.562C104.656 198.292 106.031 198.156 107.469 198.156C109.844 198.156 111.812 198.365 113.375 198.781C114.938 199.198 116.177 199.833 117.094 200.688C118.031 201.521 118.677 202.583 119.031 203.875C119.406 205.146 119.594 206.656 119.594 208.406V225.844L122.219 229.031V231H116.438L114.031 228.219H112.906C112.802 228.323 112.521 228.562 112.062 228.938C111.625 229.292 111.052 229.677 110.344 230.094C109.656 230.49 108.865 230.844 107.969 231.156C107.094 231.469 106.156 231.625 105.156 231.625C103.594 231.625 102.177 231.396 100.906 230.938C99.6354 230.458 98.5417 229.792 97.625 228.938C96.7292 228.062 96.0312 227.031 95.5312 225.844C95.0521 224.635 94.8125 223.312 94.8125 221.875ZM101.625 221.312C101.625 222.271 101.76 223.073 102.031 223.719C102.302 224.344 102.677 224.844 103.156 225.219C103.656 225.594 104.25 225.854 104.938 226C105.646 226.146 106.427 226.219 107.281 226.219C108.073 226.219 108.812 226.125 109.5 225.938C110.208 225.729 110.823 225.5 111.344 225.25C111.948 224.979 112.51 224.656 113.031 224.281V215.875L106.75 216.281C105.771 216.344 104.948 216.51 104.281 216.781C103.635 217.052 103.115 217.406 102.719 217.844C102.323 218.281 102.042 218.802 101.875 219.406C101.708 219.99 101.625 220.625 101.625 221.312Z" fill="white"/>
<path d="M128.281 215.594C128.281 212.615 128.698 210.031 129.531 207.844C130.365 205.656 131.49 203.844 132.906 202.406C134.344 200.969 136 199.906 137.875 199.219C139.75 198.51 141.74 198.156 143.844 198.156C144.635 198.156 145.344 198.198 145.969 198.281C146.594 198.344 147.125 198.427 147.562 198.531C148.083 198.635 148.542 198.76 148.938 198.906V186.031H155.594V225.844L158.344 229.031V231H152.094L149.938 228.531H148.875C148.771 228.635 148.552 228.854 148.219 229.188C147.906 229.521 147.448 229.865 146.844 230.219C146.26 230.573 145.531 230.896 144.656 231.188C143.802 231.479 142.792 231.625 141.625 231.625C140.083 231.625 138.521 231.312 136.938 230.688C135.354 230.062 133.917 229.094 132.625 227.781C131.354 226.469 130.312 224.812 129.5 222.812C128.688 220.792 128.281 218.385 128.281 215.594ZM135.281 215.594C135.281 217.531 135.479 219.188 135.875 220.562C136.292 221.938 136.875 223.073 137.625 223.969C138.375 224.844 139.292 225.49 140.375 225.906C141.458 226.302 142.677 226.5 144.031 226.5C144.552 226.5 145.104 226.417 145.688 226.25C146.271 226.083 146.802 225.885 147.281 225.656C147.844 225.427 148.396 225.146 148.938 224.812V203.688C148.667 203.521 148.26 203.354 147.719 203.188C147.198 203.021 146.469 202.938 145.531 202.938C142.26 202.938 139.729 204.021 137.938 206.188C136.167 208.333 135.281 211.469 135.281 215.594Z" fill="white"/>
<path d="M164.281 215.344C164.281 212.344 164.646 209.76 165.375 207.594C166.104 205.427 167.125 203.646 168.438 202.25C169.75 200.854 171.312 199.833 173.125 199.188C174.958 198.521 176.969 198.188 179.156 198.188C181.177 198.188 182.979 198.531 184.562 199.219C186.167 199.885 187.521 200.833 188.625 202.062C189.729 203.292 190.573 204.76 191.156 206.469C191.74 208.177 192.031 210.062 192.031 212.125C192.031 212.833 192 213.49 191.938 214.094C191.875 214.698 191.802 215.219 191.719 215.656C191.635 216.177 191.542 216.646 191.438 217.062L170.938 216.969C170.958 218.823 171.156 220.365 171.531 221.594C171.906 222.802 172.458 223.76 173.188 224.469C173.938 225.177 174.875 225.677 176 225.969C177.125 226.24 178.458 226.375 180 226.375C181.312 226.375 182.49 226.292 183.531 226.125C184.573 225.958 185.458 225.76 186.188 225.531C187.021 225.281 187.771 224.99 188.438 224.656C188.75 225.385 188.99 226.062 189.156 226.688C189.344 227.312 189.479 227.854 189.562 228.312C189.646 228.854 189.708 229.333 189.75 229.75C189.062 230.104 188.229 230.417 187.25 230.688C186.417 230.917 185.396 231.125 184.188 231.312C182.979 231.521 181.583 231.625 180 231.625C177.5 231.625 175.271 231.344 173.312 230.781C171.375 230.219 169.729 229.302 168.375 228.031C167.042 226.74 166.021 225.062 165.312 223C164.625 220.917 164.281 218.365 164.281 215.344ZM185.344 212.406V211.344C185.344 210.031 185.177 208.875 184.844 207.875C184.531 206.854 184.094 206 183.531 205.312C182.969 204.625 182.302 204.104 181.531 203.75C180.76 203.396 179.927 203.219 179.031 203.219C177.719 203.219 176.562 203.396 175.562 203.75C174.562 204.083 173.719 204.625 173.031 205.375C172.365 206.104 171.865 207.052 171.531 208.219C171.198 209.385 171.031 210.781 171.031 212.406H185.344Z" fill="white"/>
</svg>
