<svg width="183" height="164" viewBox="0 0 183 164" fill="none" xmlns="http://www.w3.org/2000/svg">
<path fill-rule="evenodd" clip-rule="evenodd" d="M117.142 18.2538C116.671 13.5888 112.511 10.1899 107.851 10.6622C103.191 11.1346 99.7964 15.2991 100.268 19.964C100.633 23.5766 103.211 26.4279 106.519 27.3121C106.535 27.6069 106.548 27.9 106.556 28.1947C107.101 36.7796 102.697 44.5359 96.5766 50.8058C95.7369 43.0306 91.4062 35.6916 84.9392 31.2775C79.0893 27.2847 75.3432 20.4077 75.1569 13.3229C75.1491 13.0794 75.1449 12.8355 75.1449 12.591V10.8002H70.5192V12.591C70.5192 12.8853 70.524 13.1789 70.5335 13.4721C70.7582 22.0036 75.2683 30.2806 82.3116 35.0883C88.1617 39.081 91.9075 45.958 92.0939 53.0429C92.1017 53.2864 92.1059 53.5303 92.1059 53.7748V54.9581C86.6359 60.0541 82.7882 66.3815 80.0372 73.1026C77.9727 65.4821 73.2241 58.5887 66.7028 54.1064C59.2132 48.9592 54.4322 40.1232 54.2161 31.0318C54.2076 30.744 54.2033 30.4554 54.2033 30.1665V29.758C57.7344 28.7318 60.316 25.4715 60.316 21.6056C60.3159 16.9168 56.5191 13.1156 51.8355 13.1156C47.1519 13.1156 43.3551 16.9168 43.355 21.6056C43.355 25.5115 45.9904 28.799 49.5776 29.7889V30.1665C49.5776 30.5012 49.5828 30.8355 49.5927 31.1689C49.8434 41.7058 55.3825 51.9427 64.0616 57.9082C71.5513 63.0554 76.3323 71.8913 76.5483 80.9828C76.5568 81.2706 76.5611 81.5592 76.5611 81.8481V83.9427C75.8311 87.0496 75.3101 90.2152 75.0794 93.4442C71.839 90.5738 68.0967 88.2495 64.0888 86.6057C64.0836 86.5867 64.0801 86.5673 64.0744 86.5484C63.7449 85.4967 63.4129 84.6404 63.0422 83.7294C59.5681 75.4217 54.0119 67.6647 45.908 62.9446C38.3145 58.5882 29.508 57.6526 21.2216 58.3981C20.8741 58.4307 20.526 58.4678 20.1781 58.5074C18.9078 55.4224 15.8753 53.2502 12.3353 53.2502C7.65187 53.2504 3.85488 57.0515 3.85478 61.7402C3.85478 66.4289 7.65181 70.2299 12.3353 70.2302C16.5538 70.2302 20.0525 67.1467 20.7059 63.1082C21.0214 63.0723 21.3375 63.0383 21.653 63.0087C29.258 62.3119 37.1815 63.2521 43.5952 66.9552C50.3031 70.8343 55.3034 77.5041 58.47 84.796C55.7849 84.1604 53.0345 83.8289 50.2801 83.8365C50.1132 83.8369 49.9463 83.8388 49.7794 83.8417C45.7754 83.9126 41.7704 84.7047 37.9523 86.3283C36.0021 87.0818 34.0518 87.8352 32.1016 88.5887C29.975 89.4106 27.7716 90.0315 25.5296 90.4391C22.6977 90.9548 19.804 91.1282 16.9302 90.9592C16.9259 90.9078 16.9233 90.8562 16.9181 90.8047C16.4463 86.1396 12.2866 82.7408 7.62675 83.2131C3.25796 83.656 0.00102653 87.344 2.91649e-07 91.6473C-7.44143e-05 91.9341 0.0142021 92.2235 0.0436677 92.5149C0.0879056 92.9523 0.16458 93.3787 0.27104 93.7917C0.306523 93.9293 0.344979 94.0656 0.386984 94.2002C0.47099 94.4695 0.567919 94.7325 0.676846 94.9886C0.731326 95.1167 0.788835 95.2431 0.849257 95.3678C1.21164 96.1151 1.6792 96.7979 2.2308 97.399C2.41474 97.5995 2.60792 97.791 2.80977 97.9726C3.01151 98.1542 3.22186 98.326 3.43994 98.4874C5.07615 99.6989 7.15081 100.328 9.33505 100.106C12.3002 99.8059 14.7517 98.0094 16.0222 95.5411C16.0307 95.5417 16.0392 95.5427 16.0478 95.5434C16.5394 95.5797 17.0316 95.6071 17.5242 95.6255C18.0166 95.644 18.5094 95.6535 19.0021 95.6542C19.4951 95.6548 19.9881 95.6465 20.4808 95.6293C21.2197 95.6035 21.9578 95.5572 22.6943 95.4914C23.1853 95.4475 23.6755 95.3948 24.1647 95.3331C24.8981 95.2406 25.629 95.1286 26.3563 94.9962C28.2011 94.6607 30.0223 94.1951 31.8035 93.6093C31.8121 95.5145 31.8204 97.4197 31.8291 99.3248C31.8681 107.893 31.9075 116.461 31.9465 125.029L31.9329 127.947L34.8745 127.96C42.7533 127.719 49.9562 134.819 49.805 142.781C49.8108 144.067 49.8172 145.354 49.823 146.64L49.817 147.933L50.8244 148.781C55.4677 152.619 60.111 156.457 64.7543 160.295L69.1655 164L69.185 158.217C69.1253 145.096 69.0656 131.976 69.0059 118.855L69.0172 116.342L66.4837 116.33L65.9446 116.333C54.6337 116.297 43.7857 108.539 40.1326 97.739C39.7721 96.7136 39.4733 95.674 39.2329 94.6118C38.969 93.4427 38.7057 92.2731 38.4417 91.1039C38.8337 90.9525 39.2257 90.8009 39.6177 90.6494C39.7561 90.5904 39.895 90.5325 40.034 90.4761C40.59 90.2502 41.1505 90.0443 41.7145 89.858C41.9965 89.7648 42.2792 89.6761 42.563 89.5927C42.8465 89.5093 43.1309 89.4313 43.416 89.3575C44.129 89.1729 44.8465 89.0182 45.567 88.8925C45.8552 88.8422 46.1438 88.7963 46.4328 88.7553C47.1555 88.6527 47.8805 88.5784 48.6064 88.5322C48.8966 88.5137 49.187 88.5004 49.4775 88.4907C49.7678 88.4811 50.0582 88.4758 50.3486 88.4749C50.6393 88.474 50.9299 88.477 51.2204 88.4847C52.2366 88.5117 53.2511 88.5911 54.2598 88.7206C54.5479 88.7576 54.8355 88.7991 55.1226 88.8442C55.6968 88.9345 56.2688 89.041 56.8377 89.1631C57.4067 89.2851 57.9726 89.4231 58.5347 89.5761C59.9401 89.9586 61.3219 90.436 62.6681 91.0022C63.7451 91.4552 64.7993 91.9651 65.8249 92.5277C66.5941 92.9497 67.3471 93.4013 68.0813 93.8814C68.5707 94.2014 69.0519 94.5338 69.5238 94.8786C70.4678 95.5682 71.3751 96.3068 72.2403 97.09C72.4566 97.2859 72.6708 97.484 72.8817 97.6855C73.0926 97.8869 73.3005 98.0914 73.5059 98.2982C73.7112 98.5051 73.9139 98.7146 74.1134 98.9269C75.8095 100.731 77.2937 102.726 78.5073 104.879C78.65 105.132 78.7885 105.388 78.9236 105.646C78.9912 105.774 79.0583 105.903 79.1239 106.033C79.3209 106.423 79.5093 106.817 79.6886 107.216C80.1665 108.279 80.5795 109.375 80.9226 110.5C81.0941 111.062 81.2485 111.631 81.3841 112.208C81.4857 112.639 81.5768 113.075 81.6574 113.515C81.7112 113.808 81.76 114.102 81.8042 114.399C81.8484 114.695 81.888 114.993 81.9224 115.292C81.9786 115.684 82.0313 116.073 82.0805 116.459C82.1789 117.23 82.2633 117.99 82.3335 118.742C82.7898 123.625 82.6508 128.146 81.9186 133.249L81.7921 134.326L82.5367 135.112C82.6771 135.262 82.8219 135.408 82.9704 135.551C83.7136 136.263 84.5546 136.872 85.4602 137.365C85.8222 137.563 86.1948 137.741 86.5752 137.9C86.9558 138.059 87.3445 138.199 87.7392 138.318C87.9366 138.378 88.1353 138.433 88.3355 138.483C89.3359 138.73 90.3671 138.847 91.3952 138.82C91.4931 138.819 91.591 138.816 91.6888 138.812C91.8841 138.804 92.0792 138.79 92.2738 138.772C92.3713 138.763 92.4687 138.752 92.5659 138.74C92.8576 138.705 93.1479 138.659 93.4363 138.602C93.5324 138.583 93.6283 138.563 93.7239 138.542C94.1063 138.456 94.4845 138.351 94.857 138.229C95.1363 138.136 95.4125 138.034 95.6844 137.922C95.8657 137.847 96.0453 137.767 96.2227 137.684C96.5777 137.516 96.9243 137.331 97.261 137.13C97.5975 136.928 97.9243 136.711 98.239 136.478C98.7896 136.069 99.3038 135.612 99.7718 135.112L100.516 134.326L100.39 133.249C100.377 133.157 100.367 133.066 100.354 132.975L100.353 132.973C99.6551 127.982 99.527 123.537 99.9751 118.742C100.045 117.99 100.13 117.23 100.228 116.459C100.277 116.073 100.33 115.684 100.386 115.292C100.421 114.993 100.46 114.695 100.504 114.399C100.549 114.102 100.597 113.808 100.651 113.515C100.732 113.075 100.823 112.639 100.924 112.208C101.06 111.631 101.214 111.062 101.386 110.5C101.729 109.375 102.142 108.279 102.62 107.216C102.799 106.817 102.988 106.423 103.185 106.033C103.25 105.903 103.317 105.774 103.385 105.646C103.52 105.388 103.659 105.132 103.802 104.879C105.016 102.726 106.499 100.731 108.195 98.9269C108.395 98.7146 108.597 98.5051 108.803 98.2982C109.008 98.0914 109.216 97.8869 109.427 97.6855C109.638 97.484 109.852 97.2859 110.068 97.09C110.934 96.3068 111.841 95.5682 112.785 94.8786C113.257 94.5338 113.738 94.2014 114.227 93.8814C114.961 93.4013 115.715 92.9497 116.484 92.5277C117.509 91.9651 118.563 91.4552 119.641 91.0022C120.987 90.436 122.369 89.9586 123.774 89.5761C124.336 89.4231 124.902 89.2851 125.471 89.1631C126.04 89.041 126.612 88.9345 127.186 88.8442C127.473 88.7991 127.761 88.7577 128.05 88.7206C129.058 88.5911 130.072 88.5117 131.088 88.4847C131.379 88.477 131.669 88.474 131.96 88.4749C132.25 88.4758 132.541 88.4811 132.831 88.4907C133.122 88.5004 133.412 88.5137 133.703 88.5322C134.429 88.5784 135.153 88.6527 135.876 88.7553C136.165 88.7963 136.453 88.8422 136.742 88.8925C137.462 89.0182 138.18 89.1729 138.893 89.3575C139.178 89.4313 139.462 89.5093 139.746 89.5927C140.029 89.6761 140.312 89.7648 140.594 89.858C141.158 90.0443 141.719 90.2502 142.275 90.4761C142.414 90.5325 142.552 90.5904 142.691 90.6494C143.083 90.801 143.475 90.9524 143.868 91.1039C143.604 92.2732 143.34 93.4427 143.076 94.6118C142.835 95.674 142.536 96.7136 142.176 97.739C138.465 108.711 127.329 116.543 115.825 116.33L113.291 116.342L113.303 118.855C113.243 131.976 113.183 145.096 113.124 158.217L113.143 164L117.554 160.295C122.198 156.457 126.841 152.619 131.484 148.781L132.492 147.933L132.486 146.64C132.491 145.354 132.498 144.067 132.504 142.781C132.352 134.819 139.555 127.719 147.434 127.96L150.376 127.947L150.362 125.029C150.401 116.461 150.44 107.893 150.48 99.3248C150.488 97.4202 150.497 95.5155 150.506 93.6108C150.81 93.7107 151.115 93.8075 151.421 93.9002C151.583 93.9493 151.745 93.9979 151.907 94.045C152.232 94.1391 152.558 94.2288 152.886 94.3148C154.031 94.6159 155.19 94.8677 156.357 95.0678C156.6 95.1095 156.843 95.1489 157.087 95.1861C157.574 95.2606 158.063 95.3261 158.553 95.3828C158.797 95.4112 159.042 95.4373 159.288 95.4612C159.778 95.509 160.27 95.548 160.762 95.578C161.992 95.6531 163.225 95.6724 164.457 95.6361C164.949 95.6216 165.442 95.5983 165.933 95.566C166.182 95.5496 166.43 95.5304 166.679 95.5095C167.03 96.201 167.47 96.8365 167.986 97.399C168.17 97.5995 168.364 97.791 168.565 97.9726C168.767 98.1542 168.977 98.326 169.196 98.4874C170.832 99.6989 172.906 100.328 175.091 100.106C178.003 99.8112 180.422 98.0737 181.711 95.673C181.84 95.4331 181.958 95.1867 182.063 94.9344C182.116 94.808 182.165 94.6799 182.212 94.5507C182.306 94.2926 182.387 94.029 182.455 93.7608C182.627 93.09 182.717 92.3901 182.717 91.673C182.717 91.386 182.703 91.0963 182.674 90.8047C182.202 86.1396 178.042 82.7408 173.382 83.2131C169.258 83.6312 166.127 86.942 165.789 90.9321C162.902 91.1348 159.99 90.9921 157.138 90.5024C154.772 90.0969 152.447 89.4545 150.207 88.5887C148.257 87.8352 146.306 87.0818 144.356 86.3283C140.379 84.6371 136.2 83.8479 132.029 83.8365C131.862 83.836 131.695 83.8367 131.529 83.8387C129.151 83.8676 126.779 84.1479 124.453 84.6565C127.64 77.4409 132.517 70.7867 139.122 66.9552C144.627 63.7709 151.283 62.6344 157.847 62.8135C157.998 62.8176 158.149 62.8222 158.3 62.8278C158.833 67.0029 162.393 70.2302 166.708 70.2302C171.392 70.2302 175.189 66.4291 175.189 61.7402C175.188 57.0513 171.392 53.2502 166.708 53.2502C163.278 53.2502 160.326 55.2902 158.99 58.2233C158.652 58.2074 158.314 58.1934 157.975 58.1841C150.801 57.9953 143.316 59.1948 136.809 62.9446C128.402 67.8679 122.898 76.0733 119.433 84.6558C119.208 85.2307 119 85.784 118.797 86.3735C114.69 87.9809 110.848 90.3028 107.518 93.1932C108.786 80.0457 114.041 66.4059 123.727 57.6979C132.08 50.6293 139.698 40.0384 138.934 28.0485C138.892 26.5728 138.745 25.094 138.704 23.86L134.08 23.9821C134.136 25.5553 134.274 26.8586 134.311 28.1947C134.958 38.4015 128.611 47.4375 120.701 54.1961C109.234 64.666 103.948 79.5457 102.769 94.4716C102.711 95.685 102.699 96.9114 102.762 98.1588C99.0384 102.86 96.5096 108.481 95.8049 114.656L95.7958 114.725C95.2025 118.599 94.9916 122.898 95.1627 127.075C95.1937 127.834 95.2373 128.589 95.2937 129.337C95.305 129.487 95.3197 129.637 95.3321 129.786C92.6889 130.29 89.8092 130.231 86.9931 129.585C87.0292 129.129 87.0627 128.67 87.0894 128.209C87.1332 127.455 87.1643 126.695 87.1828 125.932C87.2754 122.12 87.0521 118.247 86.5127 114.725L86.5037 114.656C85.8054 108.537 83.3154 102.962 79.6472 98.2862C79.5719 97.1157 79.5757 95.9077 79.6344 94.6969C79.8509 90.4732 80.6612 86.1828 81.8305 82.0358C84.4792 72.8306 88.9611 63.8436 95.9728 57.6979C104.326 50.6293 111.944 40.0384 111.18 28.0485C111.172 27.7783 111.161 27.5079 111.148 27.239C114.965 26.0943 117.559 22.3696 117.142 18.2538ZM144.494 122.28C134.734 123.681 126.62 132.818 126.901 142.781C126.905 143.637 126.909 144.492 126.913 145.347C124.109 147.709 121.305 150.07 118.501 152.431C118.453 142.051 118.406 131.672 118.358 121.292C129.163 120.462 139.235 113.799 144.412 104.356C144.439 110.331 144.467 116.306 144.494 122.28ZM37.8966 104.356C43.0733 113.799 53.1454 120.462 63.9502 121.292C63.9029 131.672 63.8552 142.051 63.8079 152.431C61.0039 150.07 58.2 147.709 55.3959 145.347C55.3998 144.492 55.4041 143.637 55.408 142.781C55.6883 132.818 47.5743 123.681 37.8145 122.28C37.8417 116.306 37.8694 110.331 37.8966 104.356ZM174.437 87.8056C174.824 87.8253 175.198 87.9025 175.549 88.0302C175.667 88.0728 175.781 88.1214 175.893 88.1749C176.005 88.2283 176.114 88.2869 176.22 88.3505C176.273 88.3825 176.325 88.4157 176.377 88.45C176.479 88.5187 176.578 88.5921 176.674 88.6701C176.865 88.8262 177.041 89.0007 177.199 89.1909C177.358 89.3814 177.499 89.5875 177.62 89.8075C177.65 89.8624 177.678 89.9183 177.705 89.9748C177.76 90.088 177.81 90.2044 177.854 90.3238C177.964 90.6225 178.039 90.94 178.072 91.2712C178.233 92.8613 177.405 94.3235 176.087 95.0459C175.758 95.2265 175.398 95.3608 175.015 95.4394C174.888 95.4656 174.757 95.4855 174.625 95.4989C174.36 95.5257 174.099 95.5255 173.844 95.4997C173.716 95.4867 173.591 95.4676 173.467 95.4424C171.856 95.1144 170.576 93.7711 170.402 92.0483C170.335 91.3857 170.439 90.7455 170.679 90.1715C170.824 89.8272 171.016 89.5065 171.25 89.2196C171.328 89.1241 171.41 89.0322 171.497 88.9445C171.584 88.8566 171.675 88.7729 171.77 88.6935C171.818 88.6538 171.866 88.6148 171.916 88.5774C172.015 88.5026 172.117 88.4324 172.224 88.3671C172.277 88.3345 172.331 88.3038 172.386 88.2737C172.496 88.2135 172.609 88.1581 172.725 88.1086C172.783 88.0838 172.842 88.0605 172.902 88.0385C173.021 87.9945 173.144 87.9562 173.269 87.9239C173.456 87.8755 173.65 87.8408 173.848 87.8207C174.047 87.8005 174.244 87.7957 174.437 87.8056ZM8.68154 87.8056C9.06812 87.8253 9.44202 87.9025 9.79355 88.0302C9.9109 88.0728 10.0256 88.1214 10.1376 88.1749C10.2495 88.2283 10.3585 88.2869 10.4644 88.3505C10.5174 88.3825 10.5696 88.4157 10.621 88.45C10.7236 88.5187 10.8229 88.5921 10.9184 88.6701C11.1094 88.8262 11.2854 89.0007 11.4439 89.1909C11.6025 89.3814 11.7437 89.5875 11.864 89.8075C11.894 89.8624 11.9224 89.9183 11.9498 89.9748C12.0047 90.088 12.0542 90.2044 12.0981 90.3238C12.208 90.6225 12.283 90.94 12.3165 91.2712C12.5307 93.3916 10.987 95.2842 8.86901 95.4989C6.75101 95.7134 4.86051 94.1687 4.64607 92.0483C4.57905 91.3857 4.68373 90.7455 4.92388 90.1715C5.06801 89.8272 5.26063 89.5065 5.49457 89.2196C5.57244 89.1241 5.65484 89.0322 5.74152 88.9445C5.82838 88.8566 5.91969 88.7729 6.01481 88.6935C6.06236 88.6538 6.11062 88.6148 6.16012 88.5774C6.25904 88.5026 6.36176 88.4324 6.46805 88.3671C6.52125 88.3345 6.57574 88.3038 6.63068 88.2737C6.74038 88.2135 6.85327 88.1581 6.96947 88.1086C7.02767 88.0838 7.08669 88.0605 7.1464 88.0385C7.26575 87.9945 7.38806 87.9562 7.51306 87.9239C7.70059 87.8755 7.89417 87.8408 8.09278 87.8207C8.29146 87.8005 8.48806 87.7957 8.68154 87.8056ZM166.708 57.8811C168.837 57.8811 170.563 59.6089 170.563 61.7402C170.563 63.8715 168.837 65.5993 166.708 65.5993C164.579 65.5993 162.853 63.8715 162.853 61.7402C162.853 59.6089 164.579 57.8811 166.708 57.8811ZM12.3353 57.8811C14.4642 57.8811 16.19 59.6089 16.1901 61.7402C16.1901 63.8715 14.4642 65.5993 12.3353 65.5993C10.2065 65.599 8.48052 63.8713 8.48052 61.7402C8.48062 59.6091 10.2066 57.8813 12.3353 57.8811ZM51.8355 17.7465C53.9644 17.7465 55.6902 19.4744 55.6903 21.6056C55.6903 23.7369 53.9645 25.4647 51.8355 25.4647C49.7066 25.4647 47.9807 23.7369 47.9807 21.6056C47.9808 19.4744 49.7066 17.7465 51.8355 17.7465ZM108.317 15.2698C110.435 15.0551 112.326 16.5999 112.541 18.7204C112.755 20.8408 111.211 22.7341 109.093 22.9488C106.975 23.1633 105.085 21.6184 104.87 19.4982C104.656 17.3777 106.199 15.4845 108.317 15.2698Z" fill="white"/>
<path d="M130.473 97.5988C122.584 93.6346 112.988 97.1224 109.477 105.23L107.344 110.157C108.459 109.059 110.04 108.576 111.576 108.864L113.512 109.227C121.404 110.708 128.999 105.5 130.473 97.5988Z" fill="white"/>
<path d="M71.2894 105.23C67.7785 97.1224 58.1827 93.6346 50.2936 97.5988C51.7673 105.5 59.3629 110.708 67.2546 109.227L69.1903 108.864C70.7271 108.576 72.3077 109.059 73.4223 110.157L71.2894 105.23Z" fill="white"/>
<path d="M40.8516 39.1811C40.8177 39.1969 35.8186 41.529 34.1148 46.0769C32.4115 50.6243 34.645 55.6712 34.6607 55.7066C34.6607 55.7066 39.6879 53.3741 41.3975 48.8107C43.1056 44.2508 40.8551 39.1887 40.8516 39.1811Z" fill="white"/>
<path d="M159.492 30.3413C159.465 30.3552 152.175 34.1515 149.942 41.0307C147.714 47.8959 151.363 55.2414 151.391 55.298C151.418 55.2842 158.708 51.4878 160.941 44.6087C163.169 37.744 159.52 30.3991 159.492 30.3413Z" fill="white"/>
<path d="M18.7868 30.3413C18.758 30.3991 15.1095 37.744 17.3375 44.6087C19.5702 51.4878 26.8605 55.2842 26.8871 55.298C26.9153 55.2414 30.5645 47.8959 28.3364 41.0307C26.1037 34.1515 18.8134 30.3552 18.7868 30.3413Z" fill="white"/>
<path d="M81.6002 42.3121C76.3884 38.9754 69.3236 40.7164 69.3236 40.7164C69.3334 40.7669 70.7271 47.8789 75.9204 51.2038C81.1219 54.5338 88.1694 52.8062 88.1969 52.7994C88.1969 52.7994 86.8119 45.6487 81.6002 42.3121Z" fill="white"/>
<path d="M128.818 24.1683C128.818 24.1683 124.032 26.9626 122.757 31.6664C121.49 36.3471 124.177 41.1552 124.204 41.2026C124.204 41.2026 128.99 38.4084 130.265 33.7045C131.539 29.0006 128.818 24.1683 128.818 24.1683Z" fill="white"/>
<path d="M85.7576 0C85.739 0.0177999 79.5952 5.8907 79.6012 13.1262C79.6074 20.3647 85.766 26.229 85.7794 26.2418C85.7794 26.2418 91.9426 20.3621 91.9365 13.1156C91.9305 5.88044 85.7767 0.0182292 85.7576 0Z" fill="white"/>
</svg>
